<svg viewBox="0 0 87.08 88.15" xmlns="http://www.w3.org/2000/svg" xmlns:xlink="http://www.w3.org/1999/xlink" id="Layer_1" overflow="hidden"><defs></defs><path d="M42.52 85.84C20.97 76.88 0 70.09 0 43.32 0 19.83 20.69-1.47 46.18 0.08 69.62 1.5 82.47 20.25 86.69 46.78 90.38 69.97 67.35 96.16 42.52 85.84Z" stroke-width="0" fill="#745BD0" opacity="0.1"/><path d="M72.8 39.95 72.75 39.92C72.06 39.55 71.44 39.21 70.86 38.91 72.07 43.1 72.31 47.2 71.56 51.11 70.8 55.07 69.04 58.66 66.46 61.51 65.71 62.34 64.91 63.09 64.06 63.75 64 63.88 63.94 64.01 63.88 64.13 64.18 64.7 64.36 65.25 64.33 65.73 64.28 66.51 63.39 67.2 61.69 67.78 61.55 67.83 61.4 67.87 61.26 67.92 59.87 69.32 58.2 70.35 56.23 71 54.45 71.59 52.59 71.89 50.73 71.89 49.72 71.89 48.71 71.8 47.71 71.62 46.8 71.46 45.91 71.22 45.05 70.91 43.71 71.04 42.36 71.04 41.02 70.91 36.89 70.53 33.1 69.29 29.95 67.36 29.2 67.52 28.43 67.58 27.64 67.54 25.71 67.44 23.88 66.71 22.21 65.38 20.62 64.11 19.25 62.37 18.13 60.19 16.17 56.37 15.2 51.57 15.4 46.67 15.62 41.24 17.25 36.03 20.1 31.58 22.35 28.08 24.83 25.37 27.48 23.51 29.77 21.9 32.26 20.89 34.86 20.5 35.59 20.39 36.31 20.33 37.02 20.32 39.29 18.96 41.9 17.95 44.65 17.39 47.86 16.73 52.75 16.58 57.78 19.59 63.01 22.72 67.19 28.54 70.21 36.89 70.38 37.37 70.54 37.84 70.69 38.32 71.38 38.68 72.13 39.08 72.97 39.53L73.02 39.56 72.81 39.94ZM46.09 70.79C46.65 70.95 47.21 71.09 47.79 71.19 50.53 71.68 53.4 71.47 56.09 70.59 57.71 70.05 59.14 69.24 60.36 68.17 58.06 68.74 54.96 69.12 51.62 69.25 51.49 69.31 51.36 69.36 51.23 69.41 49.58 70.08 47.85 70.54 46.1 70.79ZM30.55 67.22C33.57 68.99 37.16 70.12 41.06 70.49 42.07 70.58 43.09 70.6 44.11 70.55 43 70.08 41.95 69.48 40.98 68.78 39.41 68.56 37.96 68.28 36.69 67.94 35.02 67.49 33.65 66.95 32.6 66.33 31.94 66.72 31.26 67.02 30.56 67.23ZM41.93 68.9C42.92 69.54 43.99 70.07 45.11 70.47 46.89 70.29 48.65 69.89 50.34 69.28 48.71 69.31 47.04 69.28 45.39 69.19 44.19 69.12 43.03 69.02 41.92 68.89ZM41.15 68.36C42.48 68.54 43.9 68.67 45.42 68.76 47.46 68.87 49.53 68.89 51.52 68.81 52.74 68.28 53.88 67.65 54.94 66.92 54.36 66.88 53.78 66.79 53.23 66.65 51.92 66.32 50.84 65.54 49.96 64.25 48.59 64.29 47.2 64.21 45.78 64.01 42.39 63.54 39.61 62.51 37.47 60.94 37.12 61.56 36.76 62.11 36.42 62.6 37.38 64.64 38.74 66.4 40.48 67.84 40.7 68.02 40.92 68.19 41.14 68.36ZM55.67 66.94C54.74 67.62 53.73 68.23 52.67 68.76 55.95 68.58 58.93 68.15 61.02 67.53 61.43 67.11 61.82 66.65 62.17 66.16 62.58 65.59 62.96 64.97 63.3 64.3 62.26 65.03 61.17 65.62 60.05 66.06 58.57 66.64 57.09 66.94 55.66 66.94ZM33.01 66.05C34.71 67 37.19 67.74 40.27 68.22 40.25 68.2 40.23 68.18 40.21 68.17 38.48 66.74 37.11 65.01 36.14 63 35.68 63.62 35.23 64.13 34.83 64.54 34.25 65.13 33.64 65.63 33.02 66.05ZM63.63 64.61C63.12 65.59 62.53 66.46 61.86 67.24 63.14 66.77 63.86 66.22 63.89 65.69 63.91 65.39 63.82 65.03 63.63 64.6ZM36.27 20.78C35.79 20.81 35.34 20.87 34.91 20.93 32.37 21.31 29.95 22.29 27.71 23.86 25.11 25.69 22.67 28.36 20.45 31.81 17.64 36.19 16.04 41.33 15.82 46.68 15.62 51.5 16.58 56.23 18.5 59.99 19.59 62.11 20.92 63.81 22.47 65.04 24.07 66.31 25.81 67.01 27.65 67.1 28.25 67.13 28.83 67.1 29.4 67.01 27.42 65.72 25.72 64.14 24.38 62.32 23.7 61.4 23.12 60.43 22.64 59.42 21.16 58.62 19.94 57.46 19 55.96 17.7 53.88 17.02 51.22 17.02 48.27 17.02 47.03 17.15 45.77 17.39 44.55 17.25 41 18.72 36.88 21.53 32.94 24.22 29.16 27.74 26.13 31.17 24.62 31.55 24.45 31.93 24.3 32.31 24.18 32.8 23.62 33.33 23.08 33.9 22.57 34.63 21.92 35.42 21.32 36.27 20.76ZM23.29 59.75C23.7 60.55 24.19 61.33 24.73 62.07 26.13 63.96 27.92 65.58 30.02 66.89 30.76 66.71 31.47 66.43 32.16 66.04 31.66 65.7 31.24 65.34 30.91 64.96 29.73 63.6 28.68 62.18 27.82 60.75 27.1 60.71 26.38 60.62 25.66 60.48 24.81 60.31 24.02 60.06 23.29 59.74ZM50.48 64.22C51.27 65.28 52.21 65.93 53.33 66.21 54.03 66.39 54.77 66.48 55.52 66.48 56.78 65.55 57.9 64.47 58.86 63.29 59.37 62.66 59.82 62.01 60.22 61.34 57.33 63.05 54.02 64.03 50.49 64.21ZM60.89 61.05C60.41 61.92 59.85 62.77 59.2 63.57 58.35 64.63 57.36 65.6 56.26 66.47 57.44 66.39 58.66 66.12 59.88 65.64 61.02 65.19 62.14 64.58 63.19 63.83 62.78 63.18 62.18 62.43 61.42 61.62 61.25 61.43 61.06 61.25 60.88 61.06ZM28.34 60.78C29.15 62.09 30.12 63.4 31.24 64.68 31.58 65.07 32.03 65.45 32.58 65.79 33.25 65.37 33.89 64.84 34.5 64.22 34.93 63.78 35.41 63.23 35.91 62.54 35.78 62.24 35.65 61.94 35.54 61.64 35.42 61.32 35.31 61 35.21 60.67 35.05 60.64 34.9 60.6 34.74 60.55 34.35 60.44 33.97 60.3 33.6 60.13 31.9 60.56 30.12 60.82 28.33 60.78ZM38.05 60.81C40.08 62.21 42.69 63.14 45.84 63.58 47.14 63.76 48.43 63.84 49.69 63.82 49.13 62.88 48.65 61.72 48.25 60.31 48.2 60.13 48.15 59.95 48.1 59.76 47.52 59.68 46.94 59.58 46.36 59.46 45.61 59.3 44.89 59.1 44.22 58.87 42.87 59.53 41.49 60.08 40.13 60.44 39.41 60.63 38.72 60.76 38.06 60.82ZM48.56 59.82C48.59 59.94 48.63 60.06 48.66 60.19 49.08 61.67 49.59 62.87 50.19 63.81 53.97 63.66 57.49 62.59 60.5 60.68 59.91 60.1 59.26 59.52 58.57 58.93 57.94 59.12 57.3 59.29 56.66 59.43 53.99 60.02 51.27 60.15 48.56 59.83ZM61.19 60.74C61.38 60.94 61.57 61.13 61.75 61.32 62.37 61.98 63.05 62.78 63.55 63.57 63.6 63.53 63.65 63.5 63.7 63.46 64.29 62.13 64.76 60.63 65.09 58.99 65.23 58.32 65.34 57.62 65.43 56.89 64.77 57.7 64.04 58.46 63.24 59.16 62.59 59.74 61.9 60.27 61.19 60.75ZM65.94 56.23C65.84 57.23 65.69 58.18 65.51 59.07 65.23 60.45 64.87 61.72 64.41 62.88 65.01 62.37 65.58 61.81 66.12 61.21 68.6 58.47 70.31 55.01 71.08 51.2 70.37 51.93 68.97 53.29 66.98 54.71 66.66 55.23 66.31 55.74 65.94 56.23ZM35.69 60.77C35.77 61.01 35.85 61.26 35.95 61.5 36.03 61.72 36.12 61.93 36.21 62.14 36.47 61.76 36.74 61.34 37.01 60.87 36.56 60.87 36.12 60.84 35.7 60.77ZM35.55 60.3C35.96 60.37 36.38 60.41 36.81 60.42 36.45 60.12 36.12 59.8 35.8 59.47 35.65 59.52 35.51 59.57 35.36 59.62 35.42 59.85 35.48 60.07 35.54 60.3ZM38.79 58.24C38.45 59.03 38.11 59.75 37.76 60.4 38.47 60.35 39.22 60.22 40 60.01 41.21 59.7 42.43 59.22 43.63 58.65 42.61 58.25 41.69 57.75 40.86 57.16 40.21 57.52 39.51 57.88 38.79 58.23ZM28.06 60.35C29.73 60.42 31.4 60.22 33.01 59.85 31.91 59.22 30.94 58.31 30.09 57.12 29.63 56.47 29.22 55.79 28.86 55.09 27.88 54.91 26.88 54.66 25.88 54.35 25.81 54.33 25.74 54.31 25.67 54.28 25.99 56.16 26.81 58.24 28.07 60.36ZM59.05 58.77C59.66 59.29 60.23 59.82 60.77 60.33 61.19 59.48 61.53 58.61 61.79 57.71 60.89 58.12 59.98 58.47 59.06 58.77ZM22.97 59.13C23.81 59.56 24.73 59.88 25.74 60.08 26.34 60.2 26.94 60.28 27.54 60.32 27.1 59.57 26.72 58.81 26.39 58.07 25.78 56.68 25.38 55.35 25.19 54.11 23.91 53.65 22.57 53.02 21.38 52.13 21.44 54.62 21.97 56.97 22.97 59.13ZM36.25 59.32C36.58 59.66 36.94 59.99 37.32 60.29 37.61 59.75 37.9 59.16 38.19 58.52 37.56 58.8 36.91 59.07 36.25 59.32ZM34.28 59.97C34.53 60.06 34.79 60.14 35.06 60.21 35.02 60.06 34.98 59.92 34.94 59.77 34.72 59.84 34.5 59.91 34.28 59.97ZM62.3 57.48C62.07 58.37 61.76 59.24 61.37 60.09 61.91 59.7 62.43 59.29 62.94 58.84 63.89 58 64.75 57.07 65.51 56.08 65.52 55.95 65.54 55.82 65.55 55.69 65.25 55.88 64.94 56.07 64.62 56.26 63.86 56.71 63.09 57.12 62.31 57.49ZM29.39 55.18C29.7 55.76 30.05 56.33 30.44 56.87 31.36 58.17 32.43 59.11 33.64 59.7 34.05 59.59 34.45 59.48 34.85 59.35 34.75 58.9 34.67 58.45 34.6 57.98 34.57 57.94 34.55 57.9 34.52 57.87 34.03 57.12 33.62 56.31 33.28 55.43 32.01 55.47 30.71 55.38 29.4 55.18ZM48.43 59.38C51.15 59.72 53.87 59.6 56.55 59.01 57.09 58.89 57.62 58.75 58.15 58.6 56.32 57.08 54.22 55.57 52.05 54.24 51.57 54.54 51.07 54.86 50.55 55.19 49.71 55.72 48.82 56.29 47.89 56.85 48.05 57.74 48.22 58.59 48.42 59.39ZM44.75 58.6C45.29 58.77 45.85 58.92 46.43 59.04 46.94 59.15 47.45 59.24 47.96 59.31 47.79 58.6 47.63 57.85 47.49 57.07 46.6 57.6 45.68 58.12 44.74 58.59ZM35.17 58.76C35.2 58.91 35.23 59.06 35.26 59.21 35.33 59.19 35.41 59.16 35.48 59.14 35.37 59.02 35.27 58.89 35.17 58.77ZM35.01 57.82C35.29 58.23 35.59 58.61 35.92 58.98 36.79 58.66 37.64 58.31 38.44 57.93 38.71 57.27 38.98 56.56 39.24 55.8 39.15 55.71 39.06 55.61 38.97 55.51 38.72 55.23 38.48 54.93 38.26 54.62 38.06 54.68 37.85 54.74 37.65 54.8 36.73 55.05 35.79 55.22 34.83 55.33 34.83 56.18 34.89 57.02 35 57.83ZM17.57 46.22C17.49 46.91 17.45 47.61 17.45 48.3 17.45 51.17 18.11 53.75 19.36 55.76 20.15 57.02 21.14 58.02 22.32 58.77 21.41 56.61 20.94 54.26 20.93 51.8 19.33 50.49 18.04 48.7 17.56 46.23ZM52.48 53.97C54.68 55.34 56.82 56.88 58.66 58.44 59.76 58.09 60.85 57.67 61.93 57.17 62.33 55.56 62.47 53.87 62.33 52.15 61.66 52.7 60.96 53.13 60.23 53.45 58.27 54.29 56.49 54.32 54.94 53.54 54.65 53.4 54.38 53.23 54.11 53.03 53.61 53.29 53.06 53.61 52.47 53.97ZM41.28 56.93C42.14 57.52 43.1 58.01 44.17 58.39 45.28 57.84 46.37 57.23 47.42 56.6 47.23 55.47 47.07 54.28 46.92 53.05 46.12 53.7 45.3 54.32 44.47 54.9 43.59 55.52 42.51 56.22 41.29 56.92ZM39.59 56.13C39.41 56.66 39.22 57.16 39.03 57.64 39.53 57.4 40.01 57.14 40.47 56.89 40.16 56.65 39.87 56.4 39.59 56.13ZM33.73 55.41C33.94 55.95 34.19 56.47 34.47 56.96 34.42 56.44 34.4 55.9 34.4 55.36 34.18 55.38 33.96 55.39 33.74 55.41ZM62.73 51.8C62.9 53.55 62.79 55.27 62.42 56.93 63.08 56.61 63.73 56.26 64.38 55.88 64.8 55.64 65.2 55.39 65.58 55.14 65.74 52.99 65.74 50.63 65.56 48.07 64.77 49.57 63.8 50.83 62.73 51.81ZM39.73 55.67C40.08 56.02 40.47 56.35 40.87 56.65 42.15 55.92 43.28 55.19 44.19 54.55 45.12 53.9 46 53.23 46.83 52.54 46.79 52.16 46.74 51.78 46.7 51.39 46.21 51.18 45.74 50.99 45.28 50.81 43.69 52.09 42.02 53.11 40.27 53.86 40.1 54.49 39.91 55.09 39.73 55.66ZM47.3 52.73C47.45 53.99 47.61 55.21 47.81 56.37 48.68 55.84 49.52 55.31 50.31 54.81 50.77 54.52 51.21 54.24 51.63 53.98 51.51 53.91 51.4 53.84 51.28 53.77 50.19 53.12 49.13 52.55 48.11 52.05 47.84 52.28 47.57 52.51 47.3 52.74ZM66 55.38C66 55.38 66 55.38 66 55.38 66 55.38 66 55.38 66 55.38 66 55.38 66 55.38 66 55.38ZM38.7 54.47C38.89 54.72 39.09 54.97 39.3 55.21 39.33 55.25 39.36 55.28 39.4 55.32 39.53 54.92 39.65 54.51 39.77 54.09 39.42 54.23 39.06 54.36 38.7 54.48ZM29.14 54.69C30.49 54.92 31.81 55.02 33.11 55 32.32 52.71 32.03 50 32.24 46.88 32.02 46.68 31.81 46.47 31.61 46.26 31.49 46.13 31.37 45.99 31.25 45.85 30.26 46.31 29.38 46.75 28.67 47.15 28.23 47.39 27.84 47.67 27.49 47.97 27.49 48.02 27.49 48.07 27.49 48.11 27.57 50.43 28.13 52.66 29.13 54.68ZM32.66 47.24C32.49 50.21 32.79 52.8 33.57 54.98 33.85 54.97 34.12 54.95 34.4 54.92 34.41 54.09 34.47 53.23 34.59 52.36 34.59 52.2 34.67 50.75 35.26 48.78 34.31 48.38 33.45 47.87 32.67 47.23ZM35.66 48.95C35.08 50.93 35.02 52.38 35.02 52.4L35.02 52.42C34.91 53.26 34.85 54.08 34.84 54.89 35.75 54.79 36.65 54.62 37.54 54.38 37.7 54.34 37.85 54.29 38.01 54.25 37.04 52.77 36.42 51.03 36.18 49.14 36.01 49.08 35.83 49.03 35.66 48.96ZM65.95 47.3C66.17 50.03 66.2 52.55 66.05 54.84 66.25 54.7 66.45 54.57 66.64 54.43 68.59 51.24 69.62 47.51 69.56 43.63 69.53 41.87 69.01 40.68 67.97 40 67.86 39.93 67.74 39.86 67.62 39.8 67.64 42.28 67.05 44.95 65.96 47.3ZM25.58 53.79C25.72 53.84 25.85 53.88 25.99 53.93 26.87 54.21 27.74 54.43 28.6 54.6 27.7 52.67 27.18 50.57 27.07 48.39 26.3 49.21 25.81 50.21 25.61 51.37 25.48 52.12 25.47 52.93 25.58 53.79ZM36.63 49.26C36.88 51.06 37.49 52.7 38.43 54.1 38.93 53.94 39.42 53.76 39.91 53.55 40.27 52.23 40.54 50.94 40.75 49.74 40.59 49.74 40.43 49.73 40.28 49.73 38.98 49.73 37.76 49.57 36.63 49.26ZM67.6 39.31C67.82 39.4 68.02 39.51 68.2 39.63 69.35 40.38 69.96 41.72 69.99 43.61 70.05 47.22 69.18 50.71 67.51 53.77 69.67 52.12 70.97 50.68 71.2 50.42 71.82 46.64 71.51 42.68 70.28 38.64 69.21 38.09 68.28 37.65 67.36 37.32 67.47 37.9 67.55 38.51 67.58 39.13 67.58 39.19 67.58 39.25 67.58 39.31ZM48.47 51.74C49.45 52.22 50.47 52.78 51.51 53.39 51.69 53.5 51.87 53.61 52.05 53.72 52.65 53.35 53.21 53.02 53.73 52.74 52.76 51.93 51.93 50.79 51.21 49.44 51.05 49.48 50.9 49.52 50.74 49.56 50.03 50.29 49.27 51.03 48.46 51.74ZM54.56 52.81C54.75 52.94 54.94 53.05 55.14 53.15 56.59 53.88 58.2 53.85 60.06 53.05 60.84 52.72 61.58 52.24 62.28 51.62 62.15 50.44 61.9 49.25 61.52 48.05 61.37 47.57 61.19 47.11 60.99 46.68 58.99 49.72 56.79 51.93 55.11 52.58 54.94 52.65 54.75 52.73 54.56 52.82ZM21.37 51.59C22.41 52.4 23.66 53.08 25.13 53.63 25.05 52.8 25.06 52.02 25.19 51.29 25.43 49.89 26.06 48.71 27.06 47.78 27.02 45.15 27.55 42.53 28.61 40.13 28.33 38.82 28.19 37.41 28.19 35.89 27.73 35.87 27.28 35.86 26.82 35.87 24.39 39.38 22.66 43.32 21.83 47.29 21.52 48.76 21.37 50.19 21.36 51.58ZM41.2 49.78C41.01 50.91 40.76 52.11 40.44 53.33 41.96 52.64 43.42 51.75 44.82 50.65 43.49 50.18 42.27 49.89 41.2 49.78ZM51.66 49.31C52.43 50.73 53.26 51.8 54.17 52.52 54.45 52.38 54.71 52.26 54.96 52.17 56.54 51.56 58.73 49.35 60.66 46.4 60.7 46.34 60.74 46.29 60.77 46.23 60.18 45.12 59.41 44.18 58.47 43.42 57.92 44.63 57.06 45.79 55.95 46.8 54.67 47.96 53.17 48.83 51.66 49.32ZM47.19 51.61C47.21 51.82 47.24 52.02 47.26 52.22 47.41 52.09 47.56 51.97 47.7 51.84 47.53 51.76 47.36 51.68 47.19 51.6ZM47.13 51.11C47.43 51.25 47.74 51.39 48.05 51.54 48.75 50.92 49.41 50.3 50.01 49.7 49.43 49.78 48.87 49.79 48.32 49.74 47.87 49.7 47.46 49.53 47.08 49.26 47.03 49.31 46.99 49.35 46.94 49.39 47 49.97 47.06 50.55 47.12 51.11ZM61.27 46.25C61.53 46.77 61.75 47.33 61.94 47.92 62.29 49.04 62.54 50.16 62.68 51.26 63.7 50.27 64.62 49 65.36 47.51 65.41 47.41 65.46 47.31 65.5 47.21 65.36 45.48 65.14 43.66 64.85 41.75 64.74 41.06 64.61 40.38 64.43 39.71 63.67 41.9 62.59 44.13 61.25 46.24ZM17.82 44.62C17.82 44.62 17.82 44.71 17.82 44.75 17.93 46.83 18.62 48.64 19.87 50.15 20.19 50.53 20.54 50.9 20.94 51.24 20.97 49.93 21.13 48.59 21.41 47.22 22.23 43.29 23.91 39.39 26.28 35.9 25.46 35.94 24.66 36.04 23.89 36.19 22.13 36.53 20.49 38.02 19.28 40.36 18.63 41.62 18.13 43.09 17.82 44.63ZM45.69 50.51C46.01 50.63 46.34 50.77 46.67 50.91 46.63 50.53 46.59 50.15 46.55 49.76 46.27 50.02 45.98 50.27 45.69 50.51ZM41.27 49.35C42.43 49.47 43.76 49.81 45.22 50.33 45.63 50 46.03 49.64 46.43 49.27 46.45 49.25 46.47 49.23 46.5 49.21 46.48 49.03 46.46 48.84 46.44 48.66 45.86 48.02 45.34 47.14 44.85 46.12 43.73 46.44 42.82 46.57 42.21 46.43 42.03 46.39 41.83 46.33 41.62 46.27 41.56 47.18 41.45 48.23 41.27 49.35ZM47.4 48.94C47.71 49.14 48.03 49.27 48.37 49.3 49.06 49.36 49.79 49.32 50.53 49.16 50.65 49.03 50.77 48.91 50.89 48.78 50.5 47.98 50.14 47.11 49.81 46.19 49.05 47.17 48.24 48.09 47.4 48.93ZM36.58 48.8C37.72 49.13 38.96 49.3 40.28 49.3 40.46 49.3 40.64 49.3 40.82 49.32 41 48.15 41.12 47.07 41.18 46.14 40.16 45.8 38.92 45.27 37.66 44.52 37.47 44.82 37.29 45.12 37.12 45.43 36.9 45.82 36.71 46.22 36.53 46.6 36.49 47.34 36.51 48.07 36.58 48.79ZM51.41 48.86C51.41 48.86 51.43 48.91 51.45 48.93 52.92 48.47 54.39 47.62 55.65 46.48 56.75 45.48 57.58 44.34 58.11 43.15 57.46 42.68 56.73 42.28 55.93 41.96 55.84 41.92 55.74 41.89 55.64 41.85 55.41 41.94 55.18 42.03 54.95 42.13 54.87 42.87 54.74 43.53 54.6 44.08 54.31 45.21 53.15 46.95 51.41 48.86ZM46.85 48.48C46.92 48.55 46.98 48.61 47.05 48.67 47.95 47.77 48.82 46.77 49.63 45.71 49.49 45.32 49.36 44.92 49.23 44.51 48.28 44.9 47.37 45.26 46.54 45.57 46.64 46.5 46.74 47.43 46.83 48.35 46.83 48.4 46.83 48.44 46.84 48.49ZM35.79 48.53C35.9 48.57 36.01 48.61 36.13 48.65 36.1 48.34 36.09 48.02 36.08 47.7 35.97 47.98 35.88 48.26 35.79 48.53ZM50.12 45.78C50.29 46.26 50.47 46.74 50.66 47.19 50.84 47.63 51.02 48.04 51.2 48.43 52.85 46.6 53.91 44.99 54.17 43.96 54.29 43.49 54.4 42.93 54.48 42.31 53.54 42.69 52.6 43.09 51.7 43.47 51.2 44.27 50.67 45.04 50.11 45.78ZM32.7 46.7C33.49 47.39 34.39 47.95 35.38 48.37 35.57 47.78 35.81 47.15 36.1 46.49 36.15 45.59 36.29 44.67 36.5 43.77 36.49 43.77 36.47 43.75 36.46 43.74 35.19 44.19 33.98 44.67 32.86 45.14 32.79 45.67 32.74 46.19 32.7 46.7ZM45.27 46C45.62 46.72 45.97 47.36 46.36 47.88 46.29 47.16 46.21 46.44 46.13 45.71 45.83 45.81 45.55 45.91 45.27 45.99ZM28.78 40.86C27.96 42.92 27.51 45.2 27.5 47.42 27.8 47.19 28.12 46.97 28.47 46.78 29.17 46.39 30.02 45.96 30.98 45.51 29.98 44.21 29.24 42.65 28.78 40.87ZM64.8 39.35C65.01 40.12 65.17 40.9 65.3 41.7 65.55 43.33 65.74 44.89 65.88 46.39 66.77 44.23 67.23 41.83 67.18 39.62 66.5 39.39 65.7 39.31 64.8 39.35ZM31.67 45.67C31.76 45.77 31.85 45.87 31.94 45.97 32.05 46.09 32.17 46.21 32.29 46.33 32.32 46.01 32.35 45.68 32.39 45.35 32.14 45.46 31.9 45.56 31.67 45.67ZM41.64 45.83C41.88 45.9 42.1 45.96 42.3 46.01 42.82 46.14 43.64 46.01 44.65 45.73 44.19 44.72 43.75 43.59 43.3 42.45 43.22 42.24 43.14 42.04 43.06 41.83 42.42 41.97 41.8 42.12 41.21 42.27 41.45 42.84 41.59 43.42 41.63 44.01 41.66 44.51 41.67 45.12 41.63 45.82ZM58.64 43.01C59.61 43.77 60.41 44.71 61.03 45.81 62.33 43.74 63.37 41.55 64.09 39.4 62.61 39.56 60.93 39.99 59.17 40.57 59.13 41.38 58.95 42.2 58.63 43.01ZM37.9 44.16C39.08 44.85 40.24 45.36 41.21 45.69 41.24 45.06 41.23 44.5 41.2 44.05 41.16 43.49 41.02 42.93 40.79 42.39 40.13 42.57 39.46 42.76 38.8 42.97 38.48 43.35 38.18 43.75 37.9 44.17ZM43.5 41.74C43.57 41.93 43.65 42.11 43.72 42.3 44.17 43.46 44.62 44.6 45.08 45.61 45.4 45.51 45.73 45.4 46.08 45.28 45.94 43.97 45.78 42.66 45.6 41.36 44.88 41.47 44.18 41.6 43.5 41.74ZM36.89 44.04C36.79 44.49 36.71 44.94 36.65 45.39 36.68 45.33 36.71 45.28 36.74 45.22 36.91 44.9 37.1 44.59 37.29 44.29 37.16 44.21 37.02 44.12 36.89 44.03ZM29.07 40.19C29.51 42.19 30.29 43.92 31.39 45.32 31.73 45.16 32.09 45.01 32.46 44.85 32.63 43.52 32.89 42.13 33.23 40.68 32.8 40.11 32.43 39.5 32.11 38.85 31.76 38.11 31.5 37.35 31.34 36.58 30.54 37.5 29.81 38.62 29.21 39.9 29.16 40 29.12 40.1 29.07 40.2ZM49.65 44.35C49.75 44.67 49.85 44.98 49.96 45.29 50.32 44.8 50.67 44.3 51.01 43.78 50.55 43.97 50.1 44.16 49.65 44.35ZM46.04 41.3C46.22 42.57 46.37 43.85 46.51 45.13 47.32 44.83 48.2 44.48 49.12 44.1 48.82 43.12 48.54 42.1 48.27 41.06 47.52 41.11 46.77 41.19 46.04 41.3ZM33.58 41.12C33.3 42.34 33.09 43.52 32.93 44.65 33.91 44.24 34.95 43.83 36.04 43.44 35.16 42.78 34.31 42.01 33.58 41.12ZM37 43.59C37.18 43.71 37.36 43.82 37.53 43.93 37.7 43.68 37.88 43.44 38.06 43.2 37.71 43.32 37.36 43.43 37.01 43.55 37.01 43.56 37.01 43.57 37.01 43.58ZM48.71 41.03C48.96 41.99 49.23 42.97 49.52 43.93 50.1 43.69 50.69 43.44 51.28 43.19 51.33 43.17 51.37 43.15 51.42 43.13 51.82 42.49 52.21 41.82 52.57 41.14 51.32 40.98 50.01 40.96 48.71 41.03ZM33.7 40.57C34.52 41.62 35.5 42.51 36.53 43.25 36.57 43.24 36.61 43.22 36.65 43.21 36.96 42.06 37.39 40.92 37.95 39.83 38.04 39.64 38.14 39.46 38.24 39.28 38.24 39.28 38.24 39.28 38.24 39.28 37.23 38.51 36 37.83 34.63 37.29 34.48 37.71 34.34 38.14 34.22 38.58 34.03 39.26 33.86 39.92 33.71 40.57ZM38.58 39.56C38.49 39.72 38.41 39.87 38.33 40.03 37.84 41 37.44 42.01 37.15 43.04 37.62 42.88 38.09 42.73 38.56 42.58 39.02 42.04 39.51 41.54 40.03 41.07 39.64 40.55 39.15 40.04 38.58 39.56ZM53.03 41.2C52.74 41.75 52.43 42.3 52.11 42.83 52.91 42.5 53.72 42.15 54.55 41.82 54.55 41.72 54.57 41.62 54.58 41.52 54.08 41.39 53.56 41.28 53.03 41.2ZM56.25 41.62C56.99 41.93 57.67 42.3 58.28 42.73 58.53 42.06 58.69 41.38 58.73 40.71 57.91 40.99 57.08 41.29 56.24 41.62ZM31.74 24.89C31.61 24.94 31.47 25 31.34 25.06 28.02 26.51 24.49 29.57 21.88 33.23 19.65 36.36 18.29 39.58 17.92 42.53 18.19 41.69 18.52 40.88 18.9 40.15 20.17 37.68 21.92 36.12 23.82 35.75 24.72 35.57 25.65 35.47 26.6 35.44 27.16 34.65 27.74 33.89 28.35 33.17 28.59 31.13 29.17 29.21 30.09 27.45 30.56 26.55 31.11 25.69 31.75 24.88ZM40.28 41.43C39.96 41.72 39.65 42.02 39.36 42.33 39.77 42.21 40.19 42.09 40.6 41.98 40.5 41.8 40.4 41.61 40.28 41.43ZM40.61 41.14C40.77 41.38 40.91 41.62 41.03 41.86 41.66 41.69 42.29 41.54 42.9 41.41 42.7 40.91 42.5 40.41 42.29 39.92 42.08 40.05 41.87 40.19 41.67 40.33 41.3 40.59 40.95 40.86 40.61 41.14ZM55.03 41.2C55.23 41.26 55.43 41.32 55.63 41.39 56.67 40.98 57.72 40.59 58.74 40.25 58.74 39 58.38 37.77 57.76 36.67 56.91 36.73 55.98 36.81 54.96 36.9 54.93 36.98 54.9 37.06 54.87 37.14 55.07 38.58 55.1 39.97 55.03 41.19ZM42.67 39.69C42.9 40.23 43.12 40.77 43.33 41.32 44.08 41.16 44.82 41.03 45.53 40.92 45.41 40.11 45.29 39.31 45.14 38.52 44.26 38.85 43.44 39.24 42.66 39.69ZM53.24 40.79C53.71 40.87 54.17 40.96 54.6 41.08 54.65 40.13 54.64 39.08 54.54 37.99 54.14 38.95 53.71 39.88 53.24 40.79ZM45.57 38.36C45.72 39.18 45.85 40.01 45.97 40.85 46.72 40.74 47.45 40.67 48.15 40.62 47.94 39.8 47.74 38.97 47.55 38.13 47.53 38.02 47.5 37.92 47.48 37.81 46.82 37.96 46.18 38.15 45.57 38.36ZM38.79 39.17C39.41 39.68 39.93 40.22 40.36 40.78 40.7 40.49 41.06 40.22 41.42 39.97 41.65 39.81 41.88 39.66 42.12 39.51 41.67 38.47 41.19 37.48 40.66 36.62 39.97 37.37 39.35 38.23 38.8 39.17ZM50.04 40.54C51.01 40.54 51.92 40.6 52.78 40.72 53.39 39.55 53.94 38.33 54.42 37.09 54.42 37.04 54.41 37 54.4 36.95 53.17 37.06 51.81 37.2 50.3 37.35 49.47 37.43 48.67 37.56 47.9 37.72 47.92 37.83 47.94 37.93 47.97 38.03 48.16 38.86 48.37 39.72 48.59 40.59 48.65 40.59 48.72 40.59 48.78 40.58 49.21 40.56 49.63 40.55 50.04 40.55ZM31.75 36.39C31.9 37.16 32.15 37.91 32.5 38.64 32.75 39.16 33.04 39.64 33.36 40.1 33.49 39.56 33.64 39.01 33.79 38.45 33.92 37.99 34.06 37.55 34.22 37.12 33.43 36.83 32.61 36.58 31.76 36.39ZM58.24 36.62C58.82 37.7 59.15 38.89 59.18 40.09 59.71 39.92 60.24 39.76 60.75 39.61 62.05 39.25 63.21 39.02 64.23 38.93 63.98 38.1 63.68 37.29 63.32 36.51 61.95 36.43 60.34 36.47 58.24 36.62ZM28.62 35.92C28.62 37.17 28.72 38.35 28.91 39.46 29.52 38.23 30.23 37.15 31.02 36.24 30.21 36.08 29.41 35.98 28.61 35.92ZM40.96 36.29C41.52 37.18 42.02 38.2 42.49 39.28 43.29 38.81 44.15 38.41 45.06 38.07 44.91 37.28 44.75 36.51 44.57 35.75 44.42 35.13 44.27 34.54 44.11 33.97 42.98 34.52 41.91 35.31 40.95 36.3ZM65.22 38.89C65.95 38.89 66.6 38.98 67.16 39.15 67.12 38.46 67.03 37.79 66.9 37.16 66.37 36.99 65.84 36.86 65.28 36.75 65.13 37.46 64.94 38.18 64.72 38.91 64.89 38.91 65.06 38.9 65.23 38.9ZM34.77 36.86C36.13 37.4 37.38 38.08 38.44 38.89 39.02 37.91 39.68 37.02 40.41 36.24 39.25 34.51 37.99 33.67 36.56 33.67 35.84 34.61 35.25 35.68 34.77 36.87ZM63.81 36.55C64.05 37.1 64.27 37.66 64.46 38.22 64.61 37.7 64.74 37.18 64.85 36.67 64.52 36.62 64.18 36.58 63.82 36.55ZM67.26 36.82C68.17 37.13 69.09 37.54 70.11 38.05 70 37.72 69.89 37.38 69.77 37.05 66.78 28.8 62.66 23.05 57.52 19.98 52.61 17.04 47.84 17.19 44.71 17.83 42.27 18.33 39.94 19.19 37.87 20.33 39.63 20.38 41.33 20.67 42.97 21.09 45.09 20.5 47.29 20.28 49.29 20.48 52.06 20.76 54.21 21.78 55.48 23.38 57.91 22.81 60.39 23.56 62.65 25.6 64.68 27.43 65.7 30.03 65.68 33.22 65.75 33.31 65.81 33.4 65.87 33.5 66.5 34.46 66.97 35.58 67.27 36.81ZM44.52 33.78C44.69 34.38 44.85 35 45.01 35.65 45.18 36.39 45.34 37.15 45.49 37.92 46.1 37.71 46.74 37.53 47.4 37.37 47.16 35.9 47.22 34.32 47.57 32.75 46.58 32.97 45.56 33.31 44.53 33.77ZM48.03 32.66C47.66 34.23 47.59 35.81 47.82 37.28 48.6 37.12 49.42 36.99 50.26 36.91 51.76 36.76 53.11 36.63 54.33 36.51 54.21 35.82 54.05 35.13 53.83 34.43 53.69 33.96 53.51 33.46 53.3 32.96 51.71 32.4 49.93 32.3 48.03 32.65ZM31.88 35.97C32.73 36.17 33.57 36.41 34.37 36.71 34.81 35.61 35.35 34.61 35.99 33.71 34.58 33.9 33.15 34.7 31.88 35.97ZM65.36 36.32C65.85 36.41 66.31 36.52 66.77 36.66 66.51 35.68 66.14 34.78 65.65 33.98 65.61 34.7 65.52 35.45 65.37 36.23 65.37 36.26 65.36 36.29 65.35 36.31ZM55.81 34.36C55.61 35.05 55.39 35.74 55.13 36.44 55.99 36.36 56.77 36.3 57.5 36.24 57.04 35.54 56.47 34.9 55.8 34.36ZM53.87 33.18C54.02 33.56 54.15 33.94 54.26 34.3 54.46 34.95 54.62 35.61 54.74 36.26 55.01 35.52 55.24 34.79 55.45 34.07 55.33 33.98 55.2 33.89 55.07 33.81 54.69 33.57 54.29 33.36 53.88 33.18ZM63.61 36.09C63.9 36.11 64.18 36.14 64.45 36.17 64.61 36.19 64.77 36.21 64.93 36.24 64.93 36.21 64.94 36.18 64.95 36.15 65.11 35.3 65.22 34.35 65.24 33.37 64.17 31.94 62.7 30.93 60.87 30.36 60.36 30.2 59.8 30.04 59.21 29.88 61.1 31.77 62.57 33.85 63.61 36.09ZM55.94 33.9C56.77 34.55 57.47 35.33 58 36.2 60.13 36.05 61.74 36 63.11 36.06 61.99 33.73 60.4 31.6 58.35 29.66 57.85 29.54 57.33 29.41 56.79 29.3 56.67 30.7 56.38 32.27 55.94 33.9ZM36.9 33.24C38.32 33.36 39.57 34.24 40.72 35.91 41.72 34.9 42.82 34.1 44 33.53 43.54 32.01 43.02 30.66 42.42 29.48 41.71 29.73 41.03 30.03 40.37 30.39 39.02 31.13 37.87 32.08 36.9 33.23ZM28.63 35.48C29.5 35.54 30.36 35.66 31.22 35.83 30.99 33.97 31.31 32.01 32.18 29.96 30.98 30.96 29.84 32.09 28.77 33.35 28.75 33.54 28.73 33.72 28.72 33.91 28.68 34.44 28.65 34.97 28.64 35.48ZM32.93 29.35C32.89 29.43 32.85 29.51 32.82 29.58 31.84 31.69 31.44 33.7 31.64 35.59 33.07 34.18 34.69 33.33 36.29 33.22 36.31 33.22 36.33 33.22 36.35 33.22 37.39 31.9 38.66 30.83 40.16 30 40.82 29.64 41.51 29.33 42.22 29.08 41.55 27.83 40.79 26.78 39.94 25.91 39.92 25.89 39.89 25.86 39.87 25.84 38.4 26.19 36.9 26.82 35.38 27.7 34.55 28.18 33.74 28.73 32.94 29.35ZM27.2 35.43C27.53 35.43 27.86 35.43 28.19 35.45 28.19 34.96 28.22 34.45 28.26 33.94 27.87 34.42 27.49 34.91 27.13 35.42 27.15 35.42 27.17 35.42 27.2 35.42ZM53.64 32.62C54.22 32.84 54.77 33.11 55.3 33.45 55.39 33.51 55.48 33.57 55.57 33.63 55.99 32.06 56.26 30.56 56.37 29.22 54.65 28.87 52.77 28.59 50.84 28.48 52.14 29.76 53.03 31.22 53.64 32.62ZM42.83 29.35C43.42 30.53 43.94 31.86 44.4 33.36 45.52 32.87 46.61 32.51 47.68 32.29 47.86 31.6 48.09 30.9 48.38 30.22 48.64 29.6 48.94 29 49.28 28.44 49.26 28.44 49.24 28.44 49.21 28.44 47.04 28.44 44.85 28.69 42.83 29.35ZM58.57 29.28C59.46 29.5 60.27 29.74 61 29.96 62.73 30.49 64.15 31.4 65.24 32.67 65.16 30.31 64.45 27.82 62.37 25.94 60.29 24.06 58.01 23.33 55.78 23.79 56.17 24.37 56.46 25.02 56.63 25.73 56.78 26.33 56.85 27.03 56.86 27.8 57.28 28.13 57.69 28.48 58.1 28.84 58.26 28.99 58.42 29.13 58.58 29.28ZM32.55 24.6C31.73 25.55 31.03 26.58 30.47 27.66 29.68 29.18 29.14 30.83 28.87 32.57 30.04 31.26 31.29 30.08 32.59 29.07 33.32 27.61 34.58 25.81 36.69 24.19 36.48 24.15 36.26 24.12 36.04 24.11 34.96 24.03 33.79 24.19 32.56 24.6ZM50.19 32.02C51.2 32.02 52.16 32.16 53.07 32.43 52.43 31.06 51.5 29.66 50.16 28.45 50.03 28.45 49.91 28.45 49.78 28.44 49.4 29.05 49.06 29.7 48.77 30.38 48.52 30.98 48.31 31.58 48.15 32.19 48.84 32.07 49.52 32.01 50.19 32.01ZM56.83 28.87C57.12 28.93 57.41 29 57.69 29.06 57.41 28.82 57.14 28.58 56.85 28.35 56.85 28.52 56.84 28.69 56.83 28.87ZM40.37 25.74C41.22 26.63 41.97 27.7 42.64 28.95 44.83 28.23 47.21 27.97 49.56 28 49.56 27.98 49.58 27.97 49.59 27.95 48.56 27.14 47.32 26.46 45.82 25.98 44.12 25.43 42.29 25.36 40.38 25.74ZM50.35 28.02C52.46 28.1 54.53 28.4 56.4 28.78 56.41 28.52 56.42 28.26 56.42 28.01 55.12 26.99 53.77 26.12 52.46 25.38 51.62 26.05 50.83 26.89 50.16 27.86 50.22 27.91 50.28 27.96 50.34 28.01ZM37.25 24.31C35.87 25.32 34.48 26.67 33.43 28.44 34 28.04 34.57 27.67 35.16 27.33 36.62 26.48 38.07 25.87 39.49 25.49 38.83 24.93 38.08 24.53 37.26 24.31ZM42.7 25.06C43.82 25.06 44.91 25.23 45.94 25.56 47.48 26.06 48.76 26.76 49.82 27.59 50.48 26.65 51.23 25.82 52.05 25.15 50.24 24.16 48.52 23.43 47.12 22.9 45.56 22.32 44.18 21.88 42.95 21.56 41.92 21.85 40.9 22.24 39.93 22.71 39.24 23.04 38.48 23.47 37.7 24 38.55 24.29 39.31 24.75 39.99 25.38 40.91 25.18 41.81 25.07 42.69 25.07ZM52.85 25.09C54.03 25.76 55.24 26.54 56.42 27.44 56.39 26.84 56.33 26.3 56.21 25.82 56.04 25.11 55.74 24.46 55.32 23.89 54.7 24.06 54.09 24.33 53.48 24.68 53.27 24.81 53.06 24.94 52.85 25.09ZM43.82 21.33C45 21.67 46.15 22.07 47.27 22.49 48.73 23.04 50.53 23.81 52.43 24.86 52.7 24.66 52.98 24.47 53.26 24.31 53.84 23.97 54.43 23.7 55.03 23.52 53.81 22.1 51.82 21.19 49.26 20.93 47.54 20.76 45.67 20.9 43.83 21.33ZM37.14 20.75C36.07 21.4 35.07 22.13 34.18 22.92 33.8 23.26 33.45 23.6 33.11 23.96 34.15 23.69 35.13 23.59 36.06 23.66 36.44 23.69 36.8 23.75 37.15 23.83 37.91 23.29 38.76 22.78 39.74 22.31 40.51 21.94 41.31 21.62 42.12 21.35 40.08 20.87 38.49 20.73 37.14 20.75Z" stroke-width="0" fill="#43474F"/></svg>